<svg version="1.1" id="Layer_1" xmlns="http://www.w3.org/2000/svg" xmlns:xlink="http://www.w3.org/1999/xlink" x="0px" y="0px"
	 width="100%" viewBox="0 0 1080 1080" enable-background="new 0 0 1080 1080" xml:space="preserve">
<path fill="#FFFFFF" opacity="1.000000" stroke="none" 
	d="
M498.000000,1081.000000 
	C332.019104,1081.000000 166.538193,1081.000000 1.028647,1081.000000 
	C1.028647,721.060669 1.028647,361.121277 1.028647,1.090960 
	C360.897797,1.090960 720.795654,1.090960 1080.846680,1.090960 
	C1080.846680,360.999939 1080.846680,720.999939 1080.846680,1081.000000 
	C886.787537,1081.000000 692.643738,1081.000000 498.000000,1081.000000 
M489.929047,756.975403 
	C501.286743,756.928589 512.644470,756.881714 524.929810,756.975098 
	C536.953247,756.928284 548.976746,756.881531 561.928345,756.974915 
	C580.953430,756.928162 599.978577,756.881409 619.931274,756.973633 
	C638.287415,756.927734 656.643616,756.881897 675.927795,756.977051 
	C681.248413,756.970154 686.587402,757.248718 691.886475,756.907349 
	C715.496216,755.386047 734.014404,744.954163 746.874146,724.907288 
	C756.705933,709.580566 757.879150,692.506897 756.977661,674.072144 
	C756.929871,661.381958 756.882080,648.691711 756.976807,635.073547 
	C756.929260,623.049194 756.881714,611.024841 756.976501,598.072815 
	C756.929016,584.715637 756.881531,571.358521 756.976501,557.073547 
	C756.929504,544.049622 756.882507,531.025757 756.977661,517.073792 
	C756.930115,508.716064 756.882568,500.358368 756.975037,491.072876 
	C756.927917,484.715210 756.880798,478.357544 756.975220,471.072144 
	C756.928101,462.381592 756.880981,453.691071 756.975098,444.072693 
	C756.927979,434.048309 756.880859,424.023956 756.975037,413.071869 
	C756.229797,400.714142 755.484558,388.356445 754.734863,375.259460 
	C752.170471,366.116272 748.349792,357.513092 742.052917,350.381653 
	C738.563599,346.429932 734.088196,343.348846 729.779114,339.261505 
	C728.270508,337.993195 726.863953,336.573059 725.237427,335.480164 
	C709.910950,325.181671 692.670105,324.104431 674.071045,325.026123 
	C654.713806,325.072906 635.356628,325.119690 615.071350,325.026123 
	C603.047485,325.072937 591.023560,325.119751 578.071716,325.025757 
	C568.380432,325.072693 558.689148,325.119659 548.070374,325.025940 
	C535.713257,325.072845 523.356079,325.119751 510.071014,325.026093 
	C496.046875,325.072937 482.022705,325.119781 467.070709,325.026306 
	C450.713715,325.072601 434.356750,325.118927 417.071777,325.024414 
	C408.587708,325.019073 400.102417,324.916107 391.619812,325.025970 
	C360.822601,325.424805 333.409027,346.622864 327.296722,376.848602 
	C324.603882,390.164795 325.757782,404.258850 325.022797,418.927429 
	C325.070709,434.951385 325.118652,450.975342 325.023590,467.926880 
	C325.071289,482.284180 325.118958,496.641510 325.024139,511.926575 
	C325.071625,524.283691 325.119110,536.640808 325.024567,549.926025 
	C325.071899,559.617126 325.119232,569.308167 325.024811,579.927063 
	C325.071991,591.618042 325.119171,603.309021 325.024597,615.927734 
	C325.071503,635.617676 325.118439,655.307678 325.023651,675.925781 
	C325.050354,681.754211 324.754242,687.605530 325.166351,693.406555 
	C326.258362,708.778687 331.457520,722.532104 342.349121,734.569641 
	C353.640594,746.738098 367.333221,754.270142 384.667267,756.563782 
	C401.778320,756.654297 418.889374,756.744812 436.928467,756.975586 
	C454.285980,756.929016 471.643494,756.882385 489.929047,756.975403 
z"/>
<path fill="#00B4D3" opacity="1.000000" stroke="none" 
	d="
M615.999390,325.166504 
	C635.356628,325.119690 654.713806,325.072906 674.530090,325.450500 
	C673.807251,327.602081 672.861938,329.565277 671.408875,331.021973 
	C635.891174,366.628204 600.311584,402.172638 564.785767,437.770752 
	C563.312500,439.247009 562.252197,441.135345 560.535400,442.901245 
	C548.757935,442.979553 537.440063,443.172546 526.133667,442.895081 
	C522.282166,442.800598 520.823425,444.139954 519.567932,447.670746 
	C512.730469,466.899506 505.564758,486.011505 498.136597,505.137085 
	C497.012817,505.420227 496.064789,505.535797 495.546173,506.068970 
	C488.775299,513.030457 482.101227,520.085999 475.325348,527.042480 
	C471.762665,530.700134 468.071747,534.234314 464.397095,537.781128 
	C460.491730,541.550659 456.430542,545.164429 452.627960,549.033508 
	C446.175934,555.598328 439.991180,562.428162 433.474976,568.926941 
	C426.958862,575.425537 420.029114,581.510620 413.541962,588.036621 
	C404.270874,597.363220 395.365234,607.053711 386.066864,616.352051 
	C376.768463,625.650452 367.051147,634.529907 357.752838,643.828369 
	C348.454590,653.126831 339.496735,662.764954 330.257843,672.124023 
	C328.941132,673.457825 326.881256,674.057983 325.165344,674.997620 
	C325.118439,655.307678 325.071503,635.617676 325.449829,615.458618 
	C327.367706,614.041992 329.091309,613.327881 330.319550,612.112915 
	C368.556427,574.291809 406.895752,536.572327 444.905243,498.523529 
	C501.045807,442.324890 556.946655,385.886810 612.948914,329.550110 
	C613.653442,328.841339 614.443054,328.191528 615.020020,327.389740 
	C615.482727,326.746735 615.682800,325.914642 615.999390,325.166504 
z"/>
<path fill="#01BDCA" opacity="1.000000" stroke="none" 
	d="
M325.094513,675.461670 
	C326.881256,674.057983 328.941132,673.457825 330.257843,672.124023 
	C339.496735,662.764954 348.454590,653.126831 357.752838,643.828369 
	C367.051147,634.529907 376.768463,625.650452 386.066864,616.352051 
	C395.365234,607.053711 404.270874,597.363220 413.541962,588.036621 
	C420.029114,581.510620 426.958862,575.425537 433.474976,568.926941 
	C439.991180,562.428162 446.175934,555.598328 452.627960,549.033508 
	C456.430542,545.164429 460.491730,541.550659 464.397095,537.781128 
	C468.071747,534.234314 471.762665,530.700134 475.325348,527.042480 
	C482.101227,520.085999 488.775299,513.030457 495.546173,506.068970 
	C496.064789,505.535797 497.012817,505.420227 498.034882,505.510071 
	C496.859253,509.968811 495.438782,514.038574 493.956177,518.085571 
	C481.126221,553.106873 468.285095,588.124084 455.075745,623.122498 
	C453.246368,624.124878 451.607483,624.964233 450.359344,626.198669 
	C440.764404,635.688293 431.276001,645.285645 421.667755,654.761536 
	C420.312073,656.098572 418.486420,656.958984 416.544922,657.926514 
	C406.175507,651.180237 395.018982,654.944641 383.800476,653.673645 
	C383.800476,661.116760 383.832397,667.867676 383.791534,674.618164 
	C383.750427,681.411499 383.636932,688.204346 383.217438,695.005737 
	C381.304047,696.125183 379.541229,697.045288 378.181915,698.377258 
	C366.124664,710.190918 354.138885,722.077576 342.132050,733.942749 
	C331.457520,722.532104 326.258362,708.778687 325.166351,693.406555 
	C324.754242,687.605530 325.050354,681.754211 325.094513,675.461670 
z"/>
<path fill="#00ADDA" opacity="1.000000" stroke="none" 
	d="
M615.535400,325.096313 
	C615.682800,325.914642 615.482727,326.746735 615.020020,327.389740 
	C614.443054,328.191528 613.653442,328.841339 612.948914,329.550110 
	C556.946655,385.886810 501.045807,442.324890 444.905243,498.523529 
	C406.895752,536.572327 368.556427,574.291809 330.319550,612.112915 
	C329.091309,613.327881 327.367706,614.041992 325.520691,614.994751 
	C325.119171,603.309021 325.071991,591.618042 325.438843,579.420776 
	C327.385406,577.956238 329.164581,577.245911 330.413818,576.002991 
	C351.556458,554.966370 372.634247,533.864563 393.724365,512.775146 
	C435.088715,471.412262 476.453033,430.049408 517.814026,388.683167 
	C524.264160,382.232178 530.692749,375.759613 537.138245,369.303864 
	C546.144470,360.283234 555.289185,351.395721 564.117065,342.203949 
	C569.334656,336.771332 574.055542,330.861725 578.999695,325.166565 
	C591.023560,325.119751 603.047485,325.072937 615.535400,325.096313 
z"/>
<path fill="#00BDCA" opacity="1.000000" stroke="none" 
	d="
M560.999512,442.831726 
	C562.252197,441.135345 563.312500,439.247009 564.785767,437.770752 
	C600.311584,402.172638 635.891174,366.628204 671.408875,331.021973 
	C672.861938,329.565277 673.807251,327.602081 674.994019,325.520508 
	C692.670105,324.104431 709.910950,325.181671 725.237427,335.480164 
	C726.863953,336.573059 728.270508,337.993195 729.774658,339.878540 
	C728.399292,341.944489 727.062195,343.427307 725.652466,344.837494 
	C679.744995,390.756805 633.825806,436.664368 587.936890,482.602203 
	C586.310791,484.229980 584.974792,486.147552 583.297485,487.584656 
	C578.539795,474.519775 573.693665,461.894318 569.589050,449.032196 
	C568.060669,444.243011 565.829712,442.190460 560.999512,442.831726 
z"/>
<path fill="#00C6C1" opacity="1.000000" stroke="none" 
	d="
M583.503601,487.930084 
	C584.974792,486.147552 586.310791,484.229980 587.936890,482.602203 
	C633.825806,436.664368 679.744995,390.756805 725.652466,344.837494 
	C727.062195,343.427307 728.399292,341.944489 729.913818,340.185425 
	C734.088196,343.348846 738.563599,346.429932 742.052917,350.381653 
	C748.349792,357.513092 752.170471,366.116272 754.389099,375.635742 
	C752.323730,377.213104 750.379150,378.188873 748.917175,379.648041 
	C705.752930,422.731506 662.637939,465.864197 619.507141,508.981140 
	C618.214355,510.273560 616.804443,511.448486 615.504150,512.733826 
	C609.963440,518.210815 604.443420,523.708740 598.655273,528.938232 
	C593.430969,515.095032 588.467285,501.512543 583.503601,487.930084 
z"/>
<path fill="#00A5E2" opacity="1.000000" stroke="none" 
	d="
M325.166626,548.997925 
	C325.119110,536.640808 325.071625,524.283691 325.428436,511.421326 
	C327.111328,509.887939 328.499084,508.969086 329.652832,507.816071 
	C389.098785,448.405640 448.528839,388.979248 507.925201,329.519196 
	C509.162354,328.280670 509.983643,326.626770 510.998962,325.166626 
	C523.356079,325.119751 535.713257,325.072845 548.492310,325.431763 
	C541.366882,333.693420 533.888672,341.617218 526.253235,349.386536 
	C518.138062,357.644012 509.813019,365.695221 501.693604,373.948700 
	C495.008087,380.744568 488.604858,387.820099 481.863342,394.558411 
	C475.357788,401.060852 468.509705,407.219177 461.938904,413.658112 
	C454.079285,421.360016 446.350372,429.195465 438.572968,436.981171 
	C435.549866,440.007477 432.517029,443.025085 429.544159,446.100342 
	C422.802246,453.074524 416.200287,460.187531 409.342621,467.045288 
	C402.956421,473.431610 396.216095,479.463165 389.808167,485.828552 
	C382.460968,493.126984 375.356598,500.669373 368.052368,508.011902 
	C363.736755,512.350159 359.161713,516.430115 354.838409,520.761047 
	C346.190216,529.424377 337.664185,538.209717 329.001221,546.858093 
	C328.004425,547.853271 326.458160,548.297974 325.166626,548.997925 
z"/>
<path fill="#00E0A7" opacity="1.000000" stroke="none" 
	d="
M756.835510,518.001831 
	C756.882507,531.025757 756.929504,544.049622 756.564453,557.578979 
	C754.386169,559.271912 752.370667,560.209167 750.890625,561.683838 
	C723.098816,589.375061 695.354248,617.113892 667.680542,644.923096 
	C666.401672,646.208313 665.876526,648.243591 664.626282,650.018433 
	C663.487854,651.738281 662.723389,653.369263 661.617004,655.035889 
	C656.435791,659.925720 651.596558,664.779846 646.416748,669.471313 
	C630.432190,660.569275 614.924561,668.727600 614.288147,686.315796 
	C614.124878,690.829895 615.507446,695.399902 615.863892,700.080200 
	C598.026184,717.650330 580.484131,735.064270 563.032898,752.568787 
	C561.984131,753.620728 561.660950,755.396057 561.000183,756.834778 
	C548.976746,756.881531 536.953247,756.928284 524.508179,756.568054 
	C534.043457,745.917053 544.097900,735.765259 553.916321,725.390137 
	C558.833252,720.194519 563.319824,714.591614 568.322998,709.084229 
	C569.298035,707.952454 569.950928,706.909302 570.979492,705.882324 
	C572.557922,705.113037 573.734558,704.283264 574.969116,703.551208 
	C577.572754,702.007568 580.206665,700.515015 582.959473,699.390259 
	C583.992859,702.795471 584.011780,707.122681 586.030090,708.482727 
	C588.334045,710.035156 592.418335,708.960266 595.729248,708.991028 
	C596.378601,708.997070 597.029541,708.838745 597.887939,708.729858 
	C601.632507,695.677246 605.406921,682.643250 609.038574,669.569519 
	C609.265442,668.752686 608.373901,667.625183 608.009644,666.299133 
	C608.880981,664.601013 609.531494,663.032349 610.640625,661.921509 
	C657.669067,614.821472 704.729187,567.752930 751.851685,520.747009 
	C753.141907,519.459961 755.157898,518.900513 756.835510,518.001831 
z"/>
<path fill="#02C8C0" opacity="1.000000" stroke="none" 
	d="
M416.878296,658.039978 
	C418.486420,656.958984 420.312073,656.098572 421.667755,654.761536 
	C431.276001,645.285645 440.764404,635.688293 450.359344,626.198669 
	C451.607483,624.964233 453.246368,624.124878 454.978699,623.509277 
	C454.842285,625.432678 454.431458,626.949280 453.918091,628.844482 
	C465.485046,628.844482 476.457489,628.679993 487.420105,628.935486 
	C491.166870,629.022766 492.933746,627.968262 494.141754,624.271851 
	C498.470856,611.025269 503.137085,597.886292 507.891937,584.785095 
	C508.423706,583.319946 510.322937,581.332092 511.609314,581.316223 
	C525.737732,581.142273 539.870361,581.311829 553.994690,581.729309 
	C552.762146,583.776306 551.744324,585.688904 550.280640,587.157104 
	C523.131775,614.389954 495.924896,641.564941 468.752869,668.774719 
	C467.356445,670.173096 466.162842,671.773987 464.597473,673.073242 
	C457.982208,664.716919 441.311737,663.390442 432.778320,670.549194 
	C433.931976,672.778992 435.110626,675.057068 436.234589,677.229492 
	C450.708221,672.753052 454.730957,673.937195 454.344116,682.547974 
	C450.134003,682.856201 445.812225,682.800964 441.633606,683.547241 
	C428.349335,685.920044 424.492096,695.760071 431.922516,706.944763 
	C430.719452,707.487671 429.727936,707.829224 429.059326,708.495056 
	C414.611511,722.882812 400.172943,737.280334 385.836975,751.779175 
	C384.804901,752.822937 384.571686,754.656555 383.967041,756.122925 
	C367.333221,754.270142 353.640594,746.738098 342.240601,734.256226 
	C354.138885,722.077576 366.124664,710.190918 378.181915,698.377258 
	C379.541229,697.045288 381.304047,696.125183 383.316681,695.463013 
	C383.753632,700.158997 383.753632,704.405945 383.753632,708.644409 
	C387.990967,708.644409 391.536560,708.644409 395.597656,708.644409 
	C395.597656,702.068298 395.597656,695.844360 395.597656,689.401917 
	C405.585236,689.182434 415.650757,689.585510 420.277435,678.860352 
	C423.467010,671.466736 422.367126,664.269470 416.878296,658.039978 
z"/>
<path fill="#00A9DE" opacity="1.000000" stroke="none" 
	d="
M325.095581,549.461975 
	C326.458160,548.297974 328.004425,547.853271 329.001221,546.858093 
	C337.664185,538.209717 346.190216,529.424377 354.838409,520.761047 
	C359.161713,516.430115 363.736755,512.350159 368.052368,508.011902 
	C375.356598,500.669373 382.460968,493.126984 389.808167,485.828552 
	C396.216095,479.463165 402.956421,473.431610 409.342621,467.045288 
	C416.200287,460.187531 422.802246,453.074524 429.544159,446.100342 
	C432.517029,443.025085 435.549866,440.007477 438.572968,436.981171 
	C446.350372,429.195465 454.079285,421.360016 461.938904,413.658112 
	C468.509705,407.219177 475.357788,401.060852 481.863342,394.558411 
	C488.604858,387.820099 495.008087,380.744568 501.693604,373.948700 
	C509.813019,365.695221 518.138062,357.644012 526.253235,349.386536 
	C533.888672,341.617218 541.366882,333.693420 548.956055,325.502106 
	C558.689148,325.119659 568.380432,325.072693 578.535706,325.096161 
	C574.055542,330.861725 569.334656,336.771332 564.117065,342.203949 
	C555.289185,351.395721 546.144470,360.283234 537.138245,369.303864 
	C530.692749,375.759613 524.264160,382.232178 517.814026,388.683167 
	C476.453033,430.049408 435.088715,471.412262 393.724365,512.775146 
	C372.634247,533.864563 351.556458,554.966370 330.413818,576.002991 
	C329.164581,577.245911 327.385406,577.956238 325.509705,578.956848 
	C325.119232,569.308167 325.071899,559.617126 325.095581,549.461975 
z"/>
<path fill="#009FE8" opacity="1.000000" stroke="none" 
	d="
M510.534973,325.096375 
	C509.983643,326.626770 509.162354,328.280670 507.925201,329.519196 
	C448.528839,388.979248 389.098785,448.405640 329.652832,507.816071 
	C328.499084,508.969086 327.111328,509.887939 325.499695,510.957428 
	C325.118958,496.641510 325.071289,482.284180 325.449432,467.458069 
	C327.484711,465.924835 329.330872,465.097687 330.669250,463.761749 
	C375.459442,419.054321 420.206573,374.303711 464.922119,329.521576 
	C466.159943,328.281921 466.982391,326.627594 467.998566,325.166626 
	C482.022705,325.119781 496.046875,325.072937 510.534973,325.096375 
z"/>
<path fill="#00CDBA" opacity="1.000000" stroke="none" 
	d="
M598.915894,529.199036 
	C604.443420,523.708740 609.963440,518.210815 615.504150,512.733826 
	C616.804443,511.448486 618.214355,510.273560 619.507141,508.981140 
	C662.637939,465.864197 705.752930,422.731506 748.917175,379.648041 
	C750.379150,378.188873 752.323730,377.213104 754.391357,376.005371 
	C755.484558,388.356445 756.229797,400.714142 756.550049,413.541107 
	C754.280823,415.309448 752.200317,416.371735 750.626892,417.942078 
	C705.151611,463.332123 659.733032,508.778961 614.267456,554.178711 
	C612.789246,555.654785 610.914856,556.734131 609.059021,557.661621 
	C605.567200,547.949585 602.241577,538.574341 598.915894,529.199036 
z"/>
<path fill="#00CFB9" opacity="1.000000" stroke="none" 
	d="
M384.317169,756.343384 
	C384.571686,754.656555 384.804901,752.822937 385.836975,751.779175 
	C400.172943,737.280334 414.611511,722.882812 429.059326,708.495056 
	C429.727936,707.829224 430.719452,707.487671 432.253876,707.063232 
	C441.330261,712.019287 448.814606,710.260498 455.718140,703.715515 
	C456.655334,705.594299 457.461090,707.209717 458.232483,708.756165 
	C460.796417,708.756165 463.234406,708.756165 466.648163,708.756165 
	C466.047424,696.738220 465.461121,685.009460 464.874817,673.280640 
	C466.162842,671.773987 467.356445,670.173096 468.752869,668.774719 
	C495.924896,641.564941 523.131775,614.389954 550.280640,587.157104 
	C551.744324,585.688904 552.762146,583.776306 554.455139,581.637817 
	C563.175598,581.205017 571.428467,581.205017 579.661499,581.205017 
	C580.918274,585.095703 582.027344,588.529114 582.761963,591.976257 
	C580.868469,592.883545 579.080261,593.506653 577.870178,594.710754 
	C555.666687,616.804688 533.506958,638.942871 511.438110,661.171082 
	C509.889832,662.730591 509.121063,665.063904 507.580688,667.005859 
	C500.180756,664.584167 494.251740,666.388367 489.235840,672.040344 
	C488.452271,670.084656 487.854675,668.593140 487.349030,667.331238 
	C484.080444,667.331238 481.174683,667.331238 477.841125,667.331238 
	C477.841125,683.447693 477.841125,699.223938 477.499329,715.042236 
	C475.394318,716.267090 473.391022,717.206482 471.906342,718.671509 
	C461.046265,729.388245 450.242981,740.164062 439.553650,751.050720 
	C438.008301,752.624512 437.167358,754.889954 436.000427,756.835327 
	C418.889374,756.744812 401.778320,756.654297 384.317169,756.343384 
z"/>
<path fill="#0099EE" opacity="1.000000" stroke="none" 
	d="
M467.534637,325.096466 
	C466.982391,326.627594 466.159943,328.281921 464.922119,329.521576 
	C420.206573,374.303711 375.459442,419.054321 330.669250,463.761749 
	C329.330872,465.097687 327.484711,465.924835 325.520935,466.994263 
	C325.118652,450.975342 325.070709,434.951385 325.448456,418.458435 
	C327.363251,417.045715 329.088196,416.338562 330.307007,415.123596 
	C358.673523,386.846619 387.000488,358.529846 415.257324,330.143341 
	C416.541962,328.852783 417.102112,326.841034 417.999756,325.165222 
	C434.356750,325.118927 450.713715,325.072601 467.534637,325.096466 
z"/>
<path fill="#01DCAC" opacity="1.000000" stroke="none" 
	d="
M756.906616,517.537842 
	C755.157898,518.900513 753.141907,519.459961 751.851685,520.747009 
	C704.729187,567.752930 657.669067,614.821472 610.640625,661.921509 
	C609.531494,663.032349 608.880981,664.601013 607.564148,666.385864 
	C606.281677,666.829102 605.429688,666.971313 604.625061,666.834595 
	C600.078308,666.062439 597.820740,667.644043 596.916199,672.483215 
	C595.469727,680.221680 593.209656,687.808105 591.022888,696.539124 
	C589.460144,689.591980 588.183411,683.552124 586.734741,677.553833 
	C583.995850,666.214050 583.954590,666.221252 572.216980,666.987427 
	C571.910767,667.007446 571.619019,667.249023 571.076111,667.500427 
	C568.839966,676.487610 566.563416,685.637451 564.286804,694.787231 
	C564.039795,694.749695 563.792786,694.712158 563.545776,694.674622 
	C562.019836,687.783447 560.493835,680.892273 559.314880,673.968323 
	C560.487732,673.408936 561.442566,673.011780 562.120422,672.336548 
	C575.460083,659.049133 588.781372,645.743042 602.050781,632.385498 
	C602.928040,631.502441 603.360107,630.177185 604.461182,628.970825 
	C614.600891,628.883972 624.278687,628.883972 634.555298,628.883972 
	C633.038757,624.214905 631.822266,620.469666 630.781555,616.385864 
	C633.028992,614.140625 635.171936,612.305298 637.161926,610.316833 
	C675.370239,572.137268 713.553040,533.932190 751.782593,495.773926 
	C753.255188,494.304199 755.141541,493.248993 756.835083,492.000641 
	C756.882568,500.358368 756.930115,508.716064 756.906616,517.537842 
z"/>
<path fill="#00F097" opacity="1.000000" stroke="none" 
	d="
M756.834290,636.001526 
	C756.882080,648.691711 756.929871,661.381958 756.552246,674.541260 
	C754.638733,675.952942 752.915161,676.659180 751.697144,677.872742 
	C726.992859,702.484131 702.329041,727.136414 677.738586,751.861389 
	C676.455505,753.151550 675.896057,755.161255 674.999756,756.835999 
	C656.643616,756.881897 638.287415,756.927734 619.508057,756.570923 
	C620.228638,754.773376 621.266052,753.272461 622.532959,752.000122 
	C635.199829,739.278931 647.924438,726.615295 660.569275,713.872498 
	C661.919678,712.511658 662.867371,710.751160 664.431885,709.109741 
	C668.547485,709.296021 672.179016,709.435242 673.271362,704.634399 
	C686.945496,715.973999 699.880920,706.807922 701.150940,694.414429 
	C701.404541,691.939209 701.729431,689.471313 702.364746,686.965210 
	C704.118164,685.807373 705.650330,684.807068 706.919617,683.542725 
	C721.784485,668.736328 736.578552,653.858765 751.496155,639.105957 
	C752.913086,637.704651 755.038025,637.019287 756.834290,636.001526 
z"/>
<path fill="#00D2B5" opacity="1.000000" stroke="none" 
	d="
M609.225159,557.998413 
	C610.914856,556.734131 612.789246,555.654785 614.267456,554.178711 
	C659.733032,508.778961 705.151611,463.332123 750.626892,417.942078 
	C752.200317,416.371735 754.280823,415.309448 756.479370,414.004944 
	C756.880859,424.023956 756.927979,434.048309 756.571411,444.578156 
	C754.888428,446.112457 753.504639,447.035828 752.345093,448.185455 
	C709.081909,491.079132 665.839478,533.993713 622.594360,576.905579 
	C622.121582,577.374756 621.727600,577.994324 621.163513,578.286194 
	C619.894714,578.943115 618.542053,579.437866 617.057861,579.663086 
	C614.336548,572.217834 611.780884,565.108154 609.225159,557.998413 
z"/>
<path fill="#01E7A0" opacity="1.000000" stroke="none" 
	d="
M664.001831,709.176086 
	C662.867371,710.751160 661.919678,712.511658 660.569275,713.872498 
	C647.924438,726.615295 635.199829,739.278931 622.532959,752.000122 
	C621.266052,753.272461 620.228638,754.773376 619.044189,756.501404 
	C599.978577,756.881409 580.953430,756.928162 561.464233,756.904846 
	C561.660950,755.396057 561.984131,753.620728 563.032898,752.568787 
	C580.484131,735.064270 598.026184,717.650330 616.160400,700.239868 
	C623.019592,709.607483 632.237488,710.787048 642.259827,709.311401 
	C651.123962,708.006287 651.407898,707.469055 650.543518,698.500916 
	C631.603516,702.504456 626.222656,700.861450 626.584839,690.694885 
	C635.296631,690.694885 644.035156,690.694885 652.822266,690.694885 
	C653.643738,682.509033 652.953918,675.269287 646.757263,669.633911 
	C651.596558,664.779846 656.435791,659.925720 661.704590,655.497681 
	C662.148376,672.209534 662.116028,688.495911 662.256165,704.780701 
	C662.268799,706.250732 663.393616,707.711182 664.001831,709.176086 
z"/>
<path fill="#00D6B1" opacity="1.000000" stroke="none" 
	d="
M617.223511,579.998657 
	C618.542053,579.437866 619.894714,578.943115 621.163513,578.286194 
	C621.727600,577.994324 622.121582,577.374756 622.594360,576.905579 
	C665.839478,533.993713 709.081909,491.079132 752.345093,448.185455 
	C753.504639,447.035828 754.888428,446.112457 756.500732,445.042053 
	C756.880981,453.691071 756.928101,462.381592 756.550171,471.541321 
	C754.398376,473.192108 752.435242,474.136902 750.979126,475.589844 
	C710.674255,515.808533 670.431091,556.089111 630.120605,596.302246 
	C628.547668,597.871399 626.411743,598.876221 624.336548,599.862732 
	C621.831116,593.053894 619.527344,586.526245 617.223511,579.998657 
z"/>
<path fill="#0192F5" opacity="1.000000" stroke="none" 
	d="
M417.535767,325.094818 
	C417.102112,326.841034 416.541962,328.852783 415.257324,330.143341 
	C387.000488,358.529846 358.673523,386.846619 330.307007,415.123596 
	C329.088196,416.338562 327.363251,417.045715 325.519653,417.994598 
	C325.757782,404.258850 324.603882,390.164795 327.296722,376.848602 
	C333.409027,346.622864 360.822601,325.424805 391.619812,325.025970 
	C400.102417,324.916107 408.587708,325.019073 417.535767,325.094818 
z"/>
<path fill="#00E6A1" opacity="1.000000" stroke="none" 
	d="
M665.000305,649.929504 
	C665.876526,648.243591 666.401672,646.208313 667.680542,644.923096 
	C695.354248,617.113892 723.098816,589.375061 750.890625,561.683838 
	C752.370667,560.209167 754.386169,559.271912 756.493286,558.042908 
	C756.881531,571.358521 756.929016,584.715637 756.550903,598.541748 
	C754.753540,599.837341 753.147339,600.428284 752.044922,601.525513 
	C732.132996,621.341736 712.256836,641.194275 692.476318,661.141357 
	C691.216309,662.411987 690.798950,664.518188 689.545654,666.222961 
	C683.392273,665.208252 678.457397,666.886597 673.695496,671.554382 
	C673.695496,663.893738 673.695496,657.231140 673.695496,650.362671 
	C670.540161,650.205505 667.770264,650.067505 665.000305,649.929504 
z"/>
<path fill="#00D9AE" opacity="1.000000" stroke="none" 
	d="
M624.538147,600.143982 
	C626.411743,598.876221 628.547668,597.871399 630.120605,596.302246 
	C670.431091,556.089111 710.674255,515.808533 750.979126,475.589844 
	C752.435242,474.136902 754.398376,473.192108 756.479370,472.005188 
	C756.880798,478.357544 756.927917,484.715210 756.905029,491.536743 
	C755.141541,493.248993 753.255188,494.304199 751.782593,495.773926 
	C713.553040,533.932190 675.370239,572.137268 637.161926,610.316833 
	C635.171936,612.305298 633.028992,614.140625 630.561768,616.068604 
	C628.290222,610.774658 626.414185,605.459290 624.538147,600.143982 
z"/>
<path fill="#01D7B1" opacity="1.000000" stroke="none" 
	d="
M436.464417,756.905457 
	C437.167358,754.889954 438.008301,752.624512 439.553650,751.050720 
	C450.242981,740.164062 461.046265,729.388245 471.906342,718.671509 
	C473.391022,717.206482 475.394318,716.267090 477.569855,715.501953 
	C477.982208,719.695312 477.982208,723.470947 477.982208,727.301453 
	C482.140442,727.301453 485.684601,727.301453 489.407349,727.301453 
	C489.407349,719.715515 489.407349,712.517761 489.407349,705.222656 
	C504.592041,716.207947 515.982666,705.535889 516.972046,693.436218 
	C517.309143,689.313721 517.096924,685.146423 517.474487,680.957886 
	C520.821289,678.944092 523.829407,676.972046 526.907837,675.463989 
	C526.978210,686.870728 526.978210,697.813416 526.978210,708.824219 
	C529.374146,708.963867 531.187500,709.069519 532.957642,709.508057 
	C532.357178,710.645447 531.900757,711.547852 531.227966,712.239990 
	C518.295410,725.546387 505.319183,738.810547 492.412079,752.141541 
	C491.080017,753.517395 490.128876,755.262146 489.000977,756.835754 
	C471.643494,756.882385 454.285980,756.929016 436.464417,756.905457 
z"/>
<path fill="#02F691" opacity="1.000000" stroke="none" 
	d="
M675.463745,756.906494 
	C675.896057,755.161255 676.455505,753.151550 677.738586,751.861389 
	C702.329041,727.136414 726.992859,702.484131 751.697144,677.872742 
	C752.915161,676.659180 754.638733,675.952942 756.481445,675.005127 
	C757.879150,692.506897 756.705933,709.580566 746.874146,724.907288 
	C734.014404,744.954163 715.496216,755.386047 691.886475,756.907349 
	C686.587402,757.248718 681.248413,756.970154 675.463745,756.906494 
z"/>
<path fill="#00EC9B" opacity="1.000000" stroke="none" 
	d="
M689.989563,666.235657 
	C690.798950,664.518188 691.216309,662.411987 692.476318,661.141357 
	C712.256836,641.194275 732.132996,621.341736 752.044922,601.525513 
	C753.147339,600.428284 754.753540,599.837341 756.479736,599.005615 
	C756.881714,611.024841 756.929260,623.049194 756.905518,635.537537 
	C755.038025,637.019287 752.913086,637.704651 751.496155,639.105957 
	C736.578552,653.858765 721.784485,668.736328 706.919617,683.542725 
	C705.650330,684.807068 704.118164,685.807373 702.265808,686.562134 
	C701.088074,677.638367 699.001831,669.883667 689.989563,666.235657 
z"/>
<path fill="#01DDAA" opacity="1.000000" stroke="none" 
	d="
M489.465027,756.905579 
	C490.128876,755.262146 491.080017,753.517395 492.412079,752.141541 
	C505.319183,738.810547 518.295410,725.546387 531.227966,712.239990 
	C531.900757,711.547852 532.357178,710.645447 533.384521,709.441162 
	C535.389221,708.933228 536.923706,708.825012 538.492249,708.714355 
	C538.652527,705.136475 538.790039,702.068237 539.297241,698.996460 
	C541.295654,697.977417 543.014221,697.079590 544.532654,695.919739 
	C546.994995,694.039124 549.326172,691.986633 551.856995,690.388977 
	C552.421448,692.378357 552.987671,693.962952 553.238525,695.596069 
	C555.143799,708.001648 555.704285,708.538696 568.000977,709.172852 
	C563.319824,714.591614 558.833252,720.194519 553.916321,725.390137 
	C544.097900,735.765259 534.043457,745.917053 524.044312,756.497925 
	C512.644470,756.881714 501.286743,756.928589 489.465027,756.905579 
z"/>
<path fill="#FDFFFF" opacity="1.000000" stroke="none" 
	d="
M624.336548,599.862732 
	C626.414185,605.459290 628.290222,610.774658 630.386047,616.407227 
	C631.822266,620.469666 633.038757,624.214905 634.555298,628.883972 
	C624.278687,628.883972 614.600891,628.883972 604.032776,628.885376 
	C597.899048,629.814026 595.072083,627.766602 593.898804,622.416199 
	C592.956726,618.120117 591.015747,614.043213 589.424805,609.487915 
	C587.266479,603.392090 585.201477,597.677307 583.136414,591.962524 
	C582.027344,588.529114 580.918274,585.095703 579.661499,581.205017 
	C571.428467,581.205017 563.175598,581.205017 554.462341,581.296509 
	C539.870361,581.311829 525.737732,581.142273 511.609314,581.316223 
	C510.322937,581.332092 508.423706,583.319946 507.891937,584.785095 
	C503.137085,597.886292 498.470856,611.025269 494.141754,624.271851 
	C492.933746,627.968262 491.166870,629.022766 487.420105,628.935486 
	C476.457489,628.679993 465.485046,628.844482 453.918091,628.844482 
	C454.431458,626.949280 454.842285,625.432678 455.350189,623.529297 
	C468.285095,588.124084 481.126221,553.106873 493.956177,518.085571 
	C495.438782,514.038574 496.859253,509.968811 498.410278,505.536652 
	C505.564758,486.011505 512.730469,466.899506 519.567932,447.670746 
	C520.823425,444.139954 522.282166,442.800598 526.133667,442.895081 
	C537.440063,443.172546 548.757935,442.979553 560.535400,442.901245 
	C565.829712,442.190460 568.060669,444.243011 569.589050,449.032196 
	C573.693665,461.894318 578.539795,474.519775 583.297485,487.584656 
	C588.467285,501.512543 593.430969,515.095032 598.655273,528.938232 
	C602.241577,538.574341 605.567200,547.949585 609.059021,557.661621 
	C611.780884,565.108154 614.336548,572.217834 617.057861,579.663086 
	C619.527344,586.526245 621.831116,593.053894 624.336548,599.862732 
M562.180237,526.275269 
	C556.234680,508.479187 550.289124,490.683075 544.397339,473.048065 
	C535.639587,499.055145 526.803223,525.295715 517.882263,551.787476 
	C535.725708,551.787476 553.142822,551.787476 570.970093,551.787476 
	C568.067200,543.318726 565.271973,535.164124 562.180237,526.275269 
z"/>
<path fill="#FDFFFF" opacity="1.000000" stroke="none" 
	d="
M416.544922,657.926514 
	C422.367126,664.269470 423.467010,671.466736 420.277435,678.860352 
	C415.650757,689.585510 405.585236,689.182434 395.597656,689.401917 
	C395.597656,695.844360 395.597656,702.068298 395.597656,708.644409 
	C391.536560,708.644409 387.990967,708.644409 383.753632,708.644409 
	C383.753632,704.405945 383.753632,700.158997 383.654388,695.454712 
	C383.636932,688.204346 383.750427,681.411499 383.791534,674.618164 
	C383.832397,667.867676 383.800476,661.116760 383.800476,653.673645 
	C395.018982,654.944641 406.175507,651.180237 416.544922,657.926514 
M409.809814,669.091125 
	C407.240601,663.640442 403.546997,662.285400 395.644775,663.972290 
	C395.644775,669.144287 395.644775,674.341309 395.644775,679.495850 
	C405.966217,680.574097 409.794891,677.924927 409.809814,669.091125 
z"/>
<path fill="#F9FEFD" opacity="1.000000" stroke="none" 
	d="
M568.322998,709.084229 
	C555.704285,708.538696 555.143799,708.001648 553.238525,695.596069 
	C552.987671,693.962952 552.421448,692.378357 551.826599,690.024231 
	C549.594849,682.006897 547.537720,674.736694 545.371765,667.081787 
	C549.505127,667.081787 552.942383,667.081787 556.585938,667.081787 
	C557.382080,669.394470 558.174988,671.697815 558.967896,674.001099 
	C560.493835,680.892273 562.019836,687.783447 563.545776,694.674622 
	C563.792786,694.712158 564.039795,694.749695 564.286804,694.787231 
	C566.563416,685.637451 568.839966,676.487610 571.076111,667.500427 
	C571.619019,667.249023 571.910767,667.007446 572.216980,666.987427 
	C583.954590,666.221252 583.995850,666.214050 586.734741,677.553833 
	C588.183411,683.552124 589.460144,689.591980 591.022888,696.539124 
	C593.209656,687.808105 595.469727,680.221680 596.916199,672.483215 
	C597.820740,667.644043 600.078308,666.062439 604.625061,666.834595 
	C605.429688,666.971313 606.281677,666.829102 607.557251,666.728882 
	C608.373901,667.625183 609.265442,668.752686 609.038574,669.569519 
	C605.406921,682.643250 601.632507,695.677246 597.887939,708.729858 
	C597.029541,708.838745 596.378601,708.997070 595.729248,708.991028 
	C592.418335,708.960266 588.334045,710.035156 586.030090,708.482727 
	C584.011780,707.122681 583.992859,702.795471 582.982483,699.003052 
	C581.182068,691.014771 579.489929,683.802307 577.797852,676.589844 
	C577.558838,676.576172 577.319824,676.562500 577.080872,676.548889 
	C574.921875,686.321289 572.762878,696.093689 570.603882,705.866089 
	C569.950928,706.909302 569.298035,707.952454 568.322998,709.084229 
z"/>
<path fill="#F7FEFC" opacity="1.000000" stroke="none" 
	d="
M689.545654,666.222961 
	C699.001831,669.883667 701.088074,677.638367 701.922485,686.596985 
	C701.729431,689.471313 701.404541,691.939209 701.150940,694.414429 
	C699.880920,706.807922 686.945496,715.973999 673.271362,704.634399 
	C672.179016,709.435242 668.547485,709.296021 664.431946,709.109741 
	C663.393616,707.711182 662.268799,706.250732 662.256165,704.780701 
	C662.116028,688.495911 662.148376,672.209534 662.046509,655.461914 
	C662.723389,653.369263 663.487854,651.738281 664.626282,650.018433 
	C667.770264,650.067505 670.540161,650.205505 673.695496,650.362671 
	C673.695496,657.231140 673.695496,663.893738 673.695496,671.554382 
	C678.457397,666.886597 683.392273,665.208252 689.545654,666.222961 
M688.533203,695.797668 
	C688.659302,690.758728 689.296997,685.662231 688.738770,680.700317 
	C688.340637,677.161743 685.307983,675.065430 681.482361,675.241150 
	C677.741211,675.413086 674.957336,677.419556 674.558411,681.158386 
	C674.107056,685.388855 673.809937,689.850891 674.719177,693.928345 
	C675.241699,696.271729 677.934998,698.856750 680.285034,699.886658 
	C683.354431,701.231873 686.463440,699.847961 688.533203,695.797668 
z"/>
<path fill="#F7FEFC" opacity="1.000000" stroke="none" 
	d="
M646.416748,669.471313 
	C652.953918,675.269287 653.643738,682.509033 652.822266,690.694885 
	C644.035156,690.694885 635.296631,690.694885 626.584839,690.694885 
	C626.222656,700.861450 631.603516,702.504456 650.543518,698.500916 
	C651.407898,707.469055 651.123962,708.006287 642.259827,709.311401 
	C632.237488,710.787048 623.019592,709.607483 616.476318,700.103882 
	C615.507446,695.399902 614.124878,690.829895 614.288147,686.315796 
	C614.924561,668.727600 630.432190,660.569275 646.416748,669.471313 
M631.738037,683.032349 
	C635.136536,683.032349 638.535034,683.032349 641.970886,683.032349 
	C641.345337,676.928772 638.876404,674.245789 634.427856,674.168396 
	C629.943481,674.090393 627.421997,676.748291 626.464539,682.812134 
	C627.937622,682.886475 629.381592,682.959412 631.738037,683.032349 
z"/>
<path fill="#01DDAA" opacity="1.000000" stroke="none" 
	d="
M570.979492,705.882324 
	C572.762878,696.093689 574.921875,686.321289 577.080872,676.548889 
	C577.319824,676.562500 577.558838,676.576172 577.797852,676.589844 
	C579.489929,683.802307 581.182068,691.014771 582.851196,698.614380 
	C580.206665,700.515015 577.572754,702.007568 574.969116,703.551208 
	C573.734558,704.283264 572.557922,705.113037 570.979492,705.882324 
z"/>
<path fill="#F9FEFD" opacity="1.000000" stroke="none" 
	d="
M464.597473,673.073242 
	C465.461121,685.009460 466.047424,696.738220 466.648163,708.756165 
	C463.234406,708.756165 460.796417,708.756165 458.232483,708.756165 
	C457.461090,707.209717 456.655334,705.594299 455.718140,703.715515 
	C448.814606,710.260498 441.330261,712.019287 432.615814,707.012939 
	C424.492096,695.760071 428.349335,685.920044 441.633606,683.547241 
	C445.812225,682.800964 450.134003,682.856201 454.344116,682.547974 
	C454.730957,673.937195 450.708221,672.753052 436.234589,677.229492 
	C435.110626,675.057068 433.931976,672.778992 432.778320,670.549194 
	C441.311737,663.390442 457.982208,664.716919 464.597473,673.073242 
M441.008362,693.587646 
	C441.385651,695.830261 441.318359,699.761780 442.223267,700.000061 
	C444.981995,700.726257 448.497894,700.856873 451.014557,699.694275 
	C454.919800,697.890137 455.063507,693.842896 454.559937,689.569702 
	C449.674652,689.884766 444.951477,688.914490 441.008362,693.587646 
z"/>
<path fill="#00D2B5" opacity="1.000000" stroke="none" 
	d="
M582.761963,591.976257 
	C585.201477,597.677307 587.266479,603.392090 589.039185,609.536743 
	C587.182556,611.126770 585.448120,612.115601 584.080383,613.473694 
	C571.261108,626.203369 558.548828,639.041138 545.679199,651.719360 
	C543.870728,653.500916 541.380615,654.590515 539.127991,655.629517 
	C538.529053,650.883789 535.344604,649.557495 531.890625,650.428101 
	C529.864868,650.938721 527.347534,653.312012 526.849182,655.298462 
	C525.709656,659.840881 529.278442,661.195068 533.000000,662.256592 
	C533.000061,663.981018 533.000183,665.307190 532.562500,666.720032 
	C530.554199,666.891052 528.983643,666.975403 526.837463,667.090698 
	C526.837463,669.896790 526.837463,672.448364 526.837524,675.000000 
	C523.829407,676.972046 520.821289,678.944092 517.345337,680.608948 
	C515.617432,674.739563 512.910583,670.146790 507.989838,667.037415 
	C509.121063,665.063904 509.889832,662.730591 511.438110,661.171082 
	C533.506958,638.942871 555.666687,616.804688 577.870178,594.710754 
	C579.080261,593.506653 580.868469,592.883545 582.761963,591.976257 
z"/>
<path fill="#F9FEFD" opacity="1.000000" stroke="none" 
	d="
M507.580688,667.005859 
	C512.910583,670.146790 515.617432,674.739563 517.006592,680.650635 
	C517.096924,685.146423 517.309143,689.313721 516.972046,693.436218 
	C515.982666,705.535889 504.592041,716.207947 489.407349,705.222656 
	C489.407349,712.517761 489.407349,719.715515 489.407349,727.301453 
	C485.684601,727.301453 482.140442,727.301453 477.982208,727.301453 
	C477.982208,723.470947 477.982208,719.695312 477.911682,715.459961 
	C477.841125,699.223938 477.841125,683.447693 477.841125,667.331238 
	C481.174683,667.331238 484.080444,667.331238 487.349030,667.331238 
	C487.854675,668.593140 488.452271,670.084656 489.235840,672.040344 
	C494.251740,666.388367 500.180756,664.584167 507.580688,667.005859 
M491.032990,678.924438 
	C490.765442,684.014038 490.013550,689.139587 490.388611,694.181396 
	C490.671906,697.990417 493.514618,700.226685 497.693329,700.259155 
	C501.969604,700.292358 504.337311,697.894043 504.878296,694.073181 
	C505.406555,690.342407 505.665710,686.413757 505.092102,682.719666 
	C503.843018,674.675415 497.625793,672.769409 491.032990,678.924438 
z"/>
<path fill="#00D6B1" opacity="1.000000" stroke="none" 
	d="
M533.000305,666.633423 
	C533.000183,665.307190 533.000061,663.981018 533.330017,662.127197 
	C536.901367,661.112610 538.927063,659.421570 539.205994,656.000427 
	C541.380615,654.590515 543.870728,653.500916 545.679199,651.719360 
	C558.548828,639.041138 571.261108,626.203369 584.080383,613.473694 
	C585.448120,612.115601 587.182556,611.126770 589.132446,609.917847 
	C591.015747,614.043213 592.956726,618.120117 593.898804,622.416199 
	C595.072083,627.766602 597.899048,629.814026 603.570923,628.972168 
	C603.360107,630.177185 602.928040,631.502441 602.050781,632.385498 
	C588.781372,645.743042 575.460083,659.049133 562.120422,672.336548 
	C561.442566,673.011780 560.487732,673.408936 559.314880,673.968323 
	C558.174988,671.697815 557.382080,669.394470 556.585938,667.081787 
	C552.942383,667.081787 549.505127,667.081787 545.371765,667.081787 
	C547.537720,674.736694 549.594849,682.006897 551.682312,689.641907 
	C549.326172,691.986633 546.994995,694.039124 544.532654,695.919739 
	C543.014221,697.079590 541.295654,697.977417 539.199097,698.536194 
	C538.731201,687.769104 538.731201,677.458679 538.731201,667.126953 
	C536.260559,666.914185 534.630432,666.773804 533.000305,666.633423 
z"/>
<path fill="#F7FEFC" opacity="1.000000" stroke="none" 
	d="
M532.562500,666.720032 
	C534.630432,666.773804 536.260559,666.914185 538.731201,667.126953 
	C538.731201,677.458679 538.731201,687.769104 538.829346,698.539734 
	C538.790039,702.068237 538.652527,705.136475 538.492249,708.714355 
	C536.923706,708.825012 535.389221,708.933228 533.427856,709.108398 
	C531.187500,709.069519 529.374146,708.963867 526.978210,708.824219 
	C526.978210,697.813416 526.978210,686.870728 526.907837,675.463989 
	C526.837463,672.448364 526.837463,669.896790 526.837463,667.090698 
	C528.983643,666.975403 530.554199,666.891052 532.562500,666.720032 
z"/>
<path fill="#02C2C6" opacity="1.000000" stroke="none" 
	d="
M562.328491,526.642334 
	C565.271973,535.164124 568.067200,543.318726 570.970093,551.787476 
	C553.142822,551.787476 535.725708,551.787476 517.882263,551.787476 
	C526.803223,525.295715 535.639587,499.055145 544.397339,473.048065 
	C550.289124,490.683075 556.234680,508.479187 562.328491,526.642334 
z"/>
<path fill="#02C2C6" opacity="1.000000" stroke="none" 
	d="
M409.867676,669.488403 
	C409.794891,677.924927 405.966217,680.574097 395.644775,679.495850 
	C395.644775,674.341309 395.644775,669.144287 395.644775,663.972290 
	C403.546997,662.285400 407.240601,663.640442 409.867676,669.488403 
z"/>
<path fill="#00EC9B" opacity="1.000000" stroke="none" 
	d="
M688.332153,696.145508 
	C686.463440,699.847961 683.354431,701.231873 680.285034,699.886658 
	C677.934998,698.856750 675.241699,696.271729 674.719177,693.928345 
	C673.809937,689.850891 674.107056,685.388855 674.558411,681.158386 
	C674.957336,677.419556 677.741211,675.413086 681.482361,675.241150 
	C685.307983,675.065430 688.340637,677.161743 688.738770,680.700317 
	C689.296997,685.662231 688.659302,690.758728 688.332153,696.145508 
z"/>
<path fill="#00E0A7" opacity="1.000000" stroke="none" 
	d="
M631.281738,683.032349 
	C629.381592,682.959412 627.937622,682.886475 626.464539,682.812134 
	C627.421997,676.748291 629.943481,674.090393 634.427856,674.168396 
	C638.876404,674.245789 641.345337,676.928772 641.970886,683.032349 
	C638.535034,683.032349 635.136536,683.032349 631.281738,683.032349 
z"/>
<path fill="#02C8C0" opacity="1.000000" stroke="none" 
	d="
M441.195526,693.249390 
	C444.951477,688.914490 449.674652,689.884766 454.559937,689.569702 
	C455.063507,693.842896 454.919800,697.890137 451.014557,699.694275 
	C448.497894,700.856873 444.981995,700.726257 442.223267,700.000061 
	C441.318359,699.761780 441.385651,695.830261 441.195526,693.249390 
z"/>
<path fill="#F7FEFC" opacity="1.000000" stroke="none" 
	d="
M539.127991,655.629517 
	C538.927063,659.421570 536.901367,661.112610 533.330017,661.729004 
	C529.278442,661.195068 525.709656,659.840881 526.849182,655.298462 
	C527.347534,653.312012 529.864868,650.938721 531.890625,650.428101 
	C535.344604,649.557495 538.529053,650.883789 539.127991,655.629517 
z"/>
<path fill="#00D2B5" opacity="1.000000" stroke="none" 
	d="
M491.223389,678.567993 
	C497.625793,672.769409 503.843018,674.675415 505.092102,682.719666 
	C505.665710,686.413757 505.406555,690.342407 504.878296,694.073181 
	C504.337311,697.894043 501.969604,700.292358 497.693329,700.259155 
	C493.514618,700.226685 490.671906,697.990417 490.388611,694.181396 
	C490.013550,689.139587 490.765442,684.014038 491.223389,678.567993 
z"/>
</svg>